<?xml version="1.0" standalone="no"?>
<!DOCTYPE svg PUBLIC "-//W3C//DTD SVG 20010904//EN"
 "http://www.w3.org/TR/2001/REC-SVG-20010904/DTD/svg10.dtd">
<svg version="1.0" xmlns="http://www.w3.org/2000/svg"
 width="203.000000pt" height="203.000000pt" viewBox="0 0 203.000000 203.000000"
 preserveAspectRatio="xMidYMid meet">
<metadata>
Created by potrace 1.14, written by Peter Selinger 2001-2017
</metadata>
<g transform="translate(0.000000,203.000000) scale(0.100000,-0.100000)"
fill="#000000" stroke="none">
<path d="M923 1927 c-29 -5 -53 -12 -53 -17 0 -4 -9 -10 -21 -13 -12 -3 -18
-10 -14 -16 3 -6 -1 -11 -9 -11 -9 0 -16 -4 -16 -10 0 -5 -7 -10 -15 -10 -8 0
-15 -5 -15 -11 0 -5 -3 -8 -8 -5 -11 7 -72 -22 -72 -34 0 -6 -4 -9 -8 -6 -5 3
-24 -8 -43 -25 -19 -16 -39 -29 -46 -29 -7 0 -17 -8 -22 -17 -6 -10 -11 -14
-11 -9 0 12 -30 -21 -48 -52 -10 -18 -10 -22 0 -22 8 0 5 -7 -6 -15 -11 -8
-17 -15 -14 -15 3 0 -22 -29 -56 -64 -67 -71 -127 -142 -127 -150 0 -3 -11
-18 -24 -32 -14 -15 -25 -34 -25 -43 0 -10 -6 -23 -12 -30 -9 -9 -9 -12 -1 -7
6 3 3 -11 -7 -31 -11 -22 -15 -42 -10 -47 5 -5 5 -17 -1 -28 -7 -13 -6 -18 3
-18 8 0 9 -3 3 -8 -6 -4 -12 -25 -14 -47 -1 -22 -7 -45 -12 -51 -5 -6 -6 -14
-2 -17 3 -4 1 -7 -6 -7 -7 0 -11 -6 -8 -12 5 -16 -78 -98 -99 -98 -8 0 -14 -4
-14 -8 0 -5 -10 -14 -22 -20 -13 -6 -17 -11 -10 -11 7 -1 10 -5 7 -11 -3 -5 1
-10 9 -10 16 0 20 -10 16 -45 -4 -36 -5 -40 -15 -47 -6 -5 -5 -15 3 -29 11
-17 11 -20 0 -13 -10 6 -10 4 1 -9 7 -9 10 -17 6 -17 -4 0 4 -15 17 -33 14
-18 29 -47 32 -64 4 -18 11 -35 16 -38 4 -3 21 -29 38 -58 45 -80 117 -170
151 -190 17 -10 36 -23 43 -30 21 -21 105 -53 238 -90 121 -35 142 -39 260
-53 81 -10 281 -6 336 6 58 13 224 75 267 99 18 11 50 24 72 31 22 7 57 23 77
36 231 146 302 259 295 470 -3 68 0 106 10 123 7 15 13 36 13 48 0 12 5 25 10
28 8 5 8 11 0 20 -8 9 -8 14 1 17 15 5 16 202 1 220 -5 7 -16 32 -22 55 -7 23
-21 51 -32 62 -10 11 -18 23 -18 26 0 6 -40 65 -50 75 -8 7 -6 27 3 36 10 10
9 26 -2 20 -5 -4 -11 -2 -13 3 -1 6 -16 12 -33 15 -16 2 -31 5 -32 6 -2 2 -6
3 -11 4 -10 1 -66 46 -58 46 8 0 -6 17 -51 65 -18 19 -33 39 -33 44 0 5 -9 13
-20 16 -11 4 -18 11 -15 16 4 5 1 9 -5 9 -6 0 -30 19 -53 43 -22 23 -44 41
-49 39 -4 -1 -8 3 -8 10 0 6 -3 8 -6 5 -4 -4 -19 2 -34 13 -16 11 -33 20 -39
20 -6 0 -11 5 -11 11 0 5 -4 7 -10 4 -5 -3 -10 -1 -10 4 0 6 -11 11 -25 11
-14 0 -25 4 -25 8 0 4 -15 9 -32 10 -18 1 -46 7 -63 12 -36 11 -210 9 -282 -3z"/>
</g>
</svg>
